# xmcd CD database file
#
# Track frame offsets:
#	150
#	16161
#	29853
#	51713
#	74137
#	95278
#	108264
#	123841
#	138439
#	166914
#	179573
#
# Disc length: 2642 seconds
#
# Revision: 0
# Processed by: cddbd v1.5.2PL0 Copyright (c) Steve Scherf et al.
# Submitted via: CDex 1.70beta2
#
DISCID=a00a500b
DTITLE=Gavin, Pete - Trouble In Love
DYEAR=1900
DGENRE=Blues
TTITLE0=Entertaining Life
TTITLE1=The Old Rocker And The Song
TTITLE2=Chilli Willi Wah Wah
TTITLE3=Waiting For The Toreadors
TTITLE4=Good Time
TTITLE5=Woman Maketh Man
TTITLE6=Spaghetti Eastern
TTITLE7=I Love You Honey
TTITLE8=Trouble In Love
TTITLE9=Close To You
TTITLE10=Steamboat
EXTD=
EXTT0=
EXTT1=
EXTT2=
EXTT3=
EXTT4=
EXTT5=
EXTT6=
EXTT7=
EXTT8=
EXTT9=
EXTT10=
PLAYORDER=
